<?xml version="1.0" encoding="utf-8"?>
<!-- Generator: Adobe Illustrator 26.0.2, SVG Export Plug-In . SVG Version: 6.00 Build 0)  -->
<svg version="1.1" id="Layer_1" xmlns="http://www.w3.org/2000/svg" xmlns:xlink="http://www.w3.org/1999/xlink" x="0px" y="0px"
	 viewBox="0 0 2490.2 1180.2" style="enable-background:new 0 0 2490.2 1180.2;" xml:space="preserve">
<style type="text/css">
	.st0{fill:#EBF2F9;}
	.st1{fill:#283250;}
	.st2{fill:#82B378;}
	.st3{fill:#A8D29F;}
	.st4{fill:#F1A34F;}
	.st5{fill:#FFB973;}
	.st6{fill:#D86713;}
	.st7{fill:#4A75CB;}
	.st8{fill:#AFCDFB;}
	.st9{fill:#699DEE;}
	.st10{opacity:0.2;fill:#699DEE;enable-background:new    ;}
	.st11{fill:#1C468A;}
	.st12{fill:#C65447;}
	.st13{fill:#E9F3FE;}
	.st14{fill:#E49963;}
	.st15{fill:#AA413E;}
	.st16{fill:#D68D5D;}
	.st17{fill:#FFFFFF;}
	.st18{fill:#82B479;}
</style>
<path id="cloud" class="st0" d="M2102.9,1177.3c0,0,271.4,49.8,357.8-138.7c112.1-244.6-118.2-430.1-294.8-395.5
	c-384.8,75.3-292.1-755.4-909.7-585.9c-173.7,47.7-642.8-235.5-773.7,218.6C451.3,383.7,341,395.6,181,464.1
	c-313.2,134.1-170,715.4,53.8,717.7C458.6,1184.1,2102.9,1177.3,2102.9,1177.3z"/>
<path id="ground" class="st1" d="M2447,1182.7H43.2c-1.2,0-2.1-1-2.1-2.1l0,0c0-1.2,1-2.1,2.1-2.1H2447c1.2,0,2.1,1,2.1,2.1l0,0
	C2449.2,1181.7,2448.2,1182.7,2447,1182.7z"/>
<g id="plant">
	<g>
		<path class="st2" d="M494.1,905.2c0,0,44-51.3,2.7-83.9c0,0-30.2-18.3-54.8-16.8c0,0,34.8,58.4,23.6,64.2
			c-11.3,5.8-34.1-67.9-34.1-67.9s-68.6-6.7-90.7,4c0,0,58.7,48,46.3,50.9c-12.4,2.9-75.7-44.3-75.7-44.3s-63.9,10.9-60.5,49.8
			s25.4,51,35.1,50s66.3-22.6,67.5-14.7c1.2,7.9-32.8,33.8-56.7,35c0,0,45,49.7,75,35.3c29.9-14.3,32.5-37.1,51.1-45.6
			s34.6-8.5,26.9,0.2c-7.7,8.7-41.5,17.1-52.1,36c-10.7,18.9-20.2,31.6,10.7,26.9c31-4.7,81.3-27.3,83.5-53.3
			C494.1,905.2,494.1,905.2,494.1,905.2z"/>
		<g>
			<path class="st2" d="M282.3,862.3c0,0,173.5-6.7,211.8,42.9c0,0,8.5,25.4,34.5,48.5l4.1,11.1c0,0-30.1-31.7-40.8-33.6
				C491.9,931.1,508.7,869.7,282.3,862.3z"/>
			<path class="st2" d="M528.7,953.7c0,0,37.2,27.5,39.8,76.7l-6.8,0.6c0,0-11.9-50.9-33.4-70.8
				C506.8,940.4,528.7,953.7,528.7,953.7z"/>
		</g>
	</g>
	<g>
		<path class="st3" d="M648,840.6c0,0-70-39.2-37.3-92.4c0,0,26.1-32.7,54.1-41.1c0,0-14.9,79.3,0,81.2s10.3-89.6,10.3-89.6
			s73.7-35.5,102.7-32.7c0,0-45.7,77.5-30.8,75.6c14.9-1.9,66.3-80.3,66.3-80.3s75.6-14,87.7,30.8s-7.5,67.2-18.7,70
			c-11.2,2.8-83.1,1.9-81.2,11.2c1.9,9.3,50.4,24.3,77.5,15.9c0,0-29.9,73.7-69.1,70c-39.2-3.7-51.3-28-75.6-29.9
			c-24.3-1.9-42,4.7-29.9,11.2c12.1,6.5,53.2,2.1,72.8,18.8c19.6,16.7,35.5,26.9-0.9,34.4s-101.7,2.8-114.8-25.2
			C648,840.6,648,840.6,648,840.6z"/>
		<g>
			<path class="st2" d="M866.4,706.2c0,0-196,63.5-218.4,134.4c0,0,0.9,31.7-18.7,68.1v14c0,0,20.5-47.6,31.7-54.1
				C661,868.6,617.2,807,866.4,706.2z"/>
			<path class="st2" d="M629.3,908.8c0,0-30.2,45.9-13,101.8l7.8-2.1c0,0-7.5-61.5,8.3-92.5C648.2,885,629.3,908.8,629.3,908.8z"/>
		</g>
	</g>
	<g>
		<path class="st3" d="M536.6,786.6c0,0,92.3-51.7,49.2-121.8c0,0-34.5-43.1-71.4-54.1c0,0,19.7,104.6,0,107
			c-19.7,2.5-13.5-118.1-13.5-118.1s-97.2-46.8-135.3-43.1c0,0,60.3,102.1,40.6,99.6c-19.7-2.5-87.3-105.8-87.3-105.8
			s-99.7-18.5-115.7,40.6c-16,59.1,9.8,88.6,24.6,92.3c14.8,3.7,109.5,2.5,107,14.8c-2.5,12.3-66.4,32-102.1,20.9
			c0,0,39.4,97.2,91,92.3s67.7-36.9,99.7-39.4c32-2.5,55.4,6.2,39.4,14.8s-70.1,2.8-96,24.8c-25.8,22-46.8,35.5,1.2,45.3
			s134.1,3.7,151.3-33.2C536.6,786.6,536.6,786.6,536.6,786.6z"/>
		<g>
			<path class="st2" d="M248.7,609.4c0,0,258.4,83.7,287.9,177.2c0,0-1.2,41.8,24.6,89.8v18.4c0,0-27.1-62.7-41.8-71.4
				C519.4,823.5,577.2,742.3,248.7,609.4z"/>
			<path class="st2" d="M561.2,876.4c0,0,39.8,60.5,17.1,134.2l-10.2-2.8c0,0,10-81.1-10.9-121.9
				C536.3,845.1,561.2,876.4,561.2,876.4z"/>
		</g>
	</g>
	<path class="st4" d="M539.7,1170.2c-99.8,0-180.7-80.9-180.7-180.7h361.5C720.5,1089.3,639.5,1170.2,539.7,1170.2z"/>
	<path class="st5" d="M495.2,1168.9c7.3,0.9,14.8,1.4,22.5,1.4c99.8,0,180.7-80.9,180.7-180.7h-44.9
		C653.5,1081.7,584.5,1157.8,495.2,1168.9z"/>
	<path class="st4" d="M378.8,1157.1h321.9c12.3,0,22.3,10,22.3,22.3H356.5C356.5,1167.1,366.5,1157.1,378.8,1157.1z"/>
	<rect x="354.9" y="989.5" class="st6" width="371.5" height="5.6"/>
</g>
<g id="monitor">
	<path class="st7" d="M943.4,469.5L887,1139.6c0,0-5.9,40.6,24.3,40.7c49.7,0.1,247.2,0,247.2,0s-37.4-8.5-36.9-27.5
		c0.5-22.4,65.9-689.6,65.9-689.6L943.4,469.5z"/>
	<path class="st8" d="M1174.6,1168.1c-9.8,0-198.5,0.6-246.8,0c-21.1-0.3-24.8-18.7-24.9-30.7c-0.1-5.7,0.6-10,0.6-10l1.5-17.4
		l3.7-44.4l3.3-39.2l4.2-50.4l3.6-42.5l40-476.1l244.1-6.3c0,0-27.5,279.2-47,482.5c-2.2,22.7-4.2,44.4-6.2,64.6
		c-0.6,6.5-1.2,12.8-1.8,19c-1.8,19.2-3.4,36.9-4.9,52.5c-0.8,8.2-1.5,15.8-2.1,22.8c-2.5,27.4-3.9,44.9-4,48.2
		c0,1.9,0.2,3.8,0.5,5.4C1142.5,1167.4,1170.9,1168.1,1174.6,1168.1z"/>
	<polygon class="st8" points="1522.6,104.9 350.5,104.9 487.7,656.3 506.5,731.8 570.5,988.6 1758.2,988.6 	"/>
	<polygon class="st9" points="350.5,104.9 331.4,111.2 545.2,1007.8 570.5,988.6 	"/>
	<polygon class="st7" points="545.2,1007.8 1725.6,1007.8 1758.2,988.6 570.5,988.6 	"/>
	<rect x="959.7" y="1168.4" class="st7" width="255.6" height="12.2"/>
	<polygon class="st7" points="1150.3,1007.8 1149,1017 908.6,1065.6 911.9,1026.4 913.5,1007.8 	"/>
	<path class="st9" d="M1174.6,1168.1c-9.8,0-198.5,0.6-246.8,0c-21.1-0.3-24.8-18.7-24.9-30.7l239.2-45c-2.5,27.4-3.9,44.9-4,48.2
		c0,1.9,0.2,3.8,0.5,5.4C1142.5,1167.4,1170.9,1168.1,1174.6,1168.1z"/>
	<polygon class="st10" points="1076.8,815 570.5,988.6 527.2,814.9 	"/>
	<polygon class="st9" points="1522.6,104.9 350.5,104.9 527.1,814.9 1712.7,815.1 	"/>
	<path class="st7" d="M1195.8,904.9c-3.4-17.4-20.2-31.5-37.7-31.5s-28.8,14.1-25.4,31.5c3.4,17.4,20.2,31.5,37.7,31.5
		S1199.2,922.3,1195.8,904.9z"/>
	<polygon class="st11" points="1657.5,784.3 560,784.3 435.7,289.2 426.2,251.3 418.1,218.9 399,142.9 1480.6,142.9 1501.6,218.9 
		1510.5,251.3 1521,289.2 	"/>
	<polygon class="st12" points="1480.6,142.9 399,142.9 418.1,218.9 1501.6,218.9 	"/>
	<path class="st4" d="M855.5,273.5H477c-3.6,0-6.8-2.4-7.8-5.9l0,0c-1.5-5.2,2.4-10.5,7.8-10.5h378.5c3.6,0,6.8,2.4,7.8,5.9l0,0
		C864.8,268.3,860.9,273.5,855.5,273.5z"/>
	<path class="st3" d="M1305,310.8H485.9c-3.6,0-6.8-2.4-7.8-5.9l0,0c-1.5-5.2,2.4-10.5,7.8-10.5H1305c3.6,0,6.8,2.4,7.8,5.9l0,0
		C1314.3,305.6,1310.4,310.8,1305,310.8z"/>
	<path class="st9" d="M1028.5,348.2H495.2c-3.6,0-6.8-2.4-7.8-5.9l0,0c-1.5-5.2,2.4-10.5,7.8-10.5h533.3c3.6,0,6.8,2.4,7.8,5.9l0,0
		C1037.9,342.9,1034,348.2,1028.5,348.2z"/>
	<path class="st4" d="M937.8,545.9H559.3c-3.6,0-6.8-2.4-7.8-5.9l0,0c-1.5-5.2,2.4-10.5,7.8-10.5h378.5c3.6,0,6.8,2.4,7.8,5.9l0,0
		C947.1,540.7,943.2,545.9,937.8,545.9z"/>
	<path class="st12" d="M1110.8,620.5H577.5c-3.6,0-6.8-2.4-7.8-5.9l0,0c-1.5-5.2,2.4-10.4,7.8-10.4h533.3c3.6,0,6.8,2.4,7.8,5.9l0,0
		C1120.2,615.3,1116.3,620.5,1110.8,620.5z"/>
	<path class="st3" d="M824.2,402.8h-314c-3.6,0-6.8-2.4-7.8-5.9l0,0c-1.5-5.2,2.4-10.5,7.8-10.5h314c3.6,0,6.8,2.4,7.8,5.9l0,0
		C833.6,397.6,829.6,402.8,824.2,402.8z"/>
	<g>
		<path class="st13" d="M450.9,167.8c-5.2,0-8.4,4.2-7.1,9.5c1.3,5.2,6.6,9.5,11.9,9.5s8.4-4.2,7.1-9.5
			C461.4,172,456.1,167.8,450.9,167.8z"/>
		<path class="st13" d="M482.4,167.8c-5.2,0-8.4,4.2-7.1,9.5c1.3,5.2,6.6,9.5,11.9,9.5s8.4-4.2,7.1-9.5
			C493,172,487.7,167.8,482.4,167.8z"/>
		<path class="st13" d="M528.3,177.3c-1.3-5.2-6.6-9.5-11.9-9.5s-8.4,4.2-7.1,9.5c1.3,5.2,6.6,9.5,11.9,9.5S529.6,182.5,528.3,177.3
			z"/>
	</g>
</g>
<path id="chair" class="st3" d="M2132.5,642c-86.6,11.4-45.4,111.9-177.6,252.1c-95.6,101.3-305.3-83.8-412.6,20.3
	c-93.3,90.4,34.3,265.9,34.3,265.9h562.9C2403.8,988.9,2204.7,632.5,2132.5,642z"/>
<g id="female">
	<g>
		<path class="st14" d="M1473.6,1057.4c-2.2,3.6-5.6,4.9-9.6,4.7c0,0,0,0-0.1,0c-7.5-0.4-17.4-6.2-27.8-13.3
			c-1.3-0.9-2.5-1.7-3.6-2.4c-0.3-0.2-0.6-0.4-0.9-0.5c-0.2-0.1-0.4-0.3-0.7-0.4c-10.7-6.3-11.5-2.5-32.6-13.2
			c-24-12.3-28-24.5-27.4-28.5c0.6-3.4,12.2-0.3,25.3,3c0.6,0.2,1.3,0.3,1.9,0.5c1.7,0.4,3.5,0.9,5.2,1.3
			c15.7,3.8,21.3-0.1,40.7-7.9c15.7-6.4,82.6-52.2,82.6-52.2l16.2,32.5c0,0-55.8,28.1-61.5,42.2c-3,7.5-1,14.3-2.8,21.3
			c-0.1,0.5-0.3,1-0.4,1.4C1477.1,1049.7,1475.9,1053.8,1473.6,1057.4z"/>
		<path class="st6" d="M1473.6,1057.4c-2.2,3.6-5.6,4.9-9.6,4.7c0,0,0,0-0.1,0c-7.6-1-17.5-6.6-27.7-13.4c-1.3-0.9-2.6-1.7-3.7-2.3
			c-0.3-0.2-0.6-0.4-0.9-0.5c-0.2-0.1-0.4-0.3-0.7-0.4c-10.7-6.3-11.5-2.5-32.6-13.2c-24-12.3-28-24.5-27.4-28.5
			c0.6-3.4,12.2-0.3,25.3,3c2.3,3.1,13.8,17.3,33.1,24.8c17,6.6,36.8,8.5,49.2,12.7c-0.1,0.5-0.3,1-0.4,1.4
			C1477.1,1049.7,1475.9,1053.8,1473.6,1057.4z"/>
		<path class="st14" d="M1530,1170.8c-1.6,11.1-17.4,10.1-35.2,6.8c-17.8-3.4-13.3,1.5-38.5,0.1c-25.1-1.4-33.2-10.3-34.2-14
			c-0.9-3.3,11.4-5.1,24.6-7.3c1.7-0.3,3.3-0.6,5-0.9c14.8-2.7,25.3-12.9,38.4-21.6c12.5-8.2,30-39.8,30-39.8l34.4,0.9
			c0,0-16.5,28.3-22.8,40.5c-3.7,7.2-3,16.4-2.1,23.5C1530.1,1162.9,1530.6,1166.8,1530,1170.8z"/>
		<path class="st6" d="M1495,1178.9c-17.9-2.8-13.3,2-38.5,1.3c-25.2-0.6-33.6-13.4-34.7-17.1c-1-3.2,6.2-4.1,19.3-6.8l5.2-1.1
			c0,0,15.9,13.5,36.7,12.2c16.9-1.1,34.4-7.4,46.2-8.3c0.6,3.9,1.2,7.8,0.8,11.7C1528.8,1182.1,1512.9,1181.6,1495,1178.9z"/>
		<path class="st14" d="M1596.7,657.4c0,0-8.2-20-17.2-20.8s-37.6-5.3-39.7-1.2c-2,4.1,0,18.8,6.1,24.1c6.1,5.3,44.2,13.9,44.2,13.9
			L1596.7,657.4z"/>
		<path class="st15" d="M1659.9,837.4l-169.3,128.2c0,0,2.2,11.2,8.4,20.7c5.7,8.8,16.2,17.6,16.2,17.6s177.7-72.7,206.1-116.3
			S1659.9,837.4,1659.9,837.4z"/>
		<path class="st12" d="M1937.4,848.5c0,0-216.1-60.4-262.6-42.6c-46.5,17.8-173.5,308.2-173.5,308.2s3.4,4.1,12.4,6.9
			c8.3,2.6,28,1.4,28,1.4s122.4-116.8,135.9-149.7c13.6-32.9,18-63.8,33.4-61.5c15.4,2.2,201,64.2,239.9,19.3
			c38.9-45,25.2-99.9,25.2-99.9L1937.4,848.5z"/>
		<path class="st11" d="M1814.5,527.1c-3.4-7-7.2-19.5-9.1-41.6c0.3,2.2,4.1,30.2,14.9,46c44.2,29,128.9,125.9,127.2,144.3
			c0,0,29.8-50.6,30.4-50.9c0,0,55.1-70-10.2-110.1c-33.2-20.4-33-46.5-31.6-69.2c1.4-22.7-9-120.5-75.5-94.9c0,0-10.7-4.7-15.4-4
			c0,0,3.9,0.8,5.9,2.8c-7.7-0.5-18.7,0.1-27.9,5.3C1798.9,368.5,1777.1,492.7,1814.5,527.1z"/>
		<path class="st14" d="M1823,533c-0.2,0.1,21.3,11.3,37.6,6.9c15.3-4.2,25.2-23.9,25-24c-6.5-1.3-8.3-10.2-8.2-48.3l-2.9,0.6
			l-49.1,9.7c0,0,1.1,15.5,1.1,30C1826.5,520.1,1825.8,531.7,1823,533z"/>
		<path class="st16" d="M1825.3,477.8c0,0,1.1,15.5,1.1,30c27.5-0.8,42-25.8,48-39.7L1825.3,477.8z"/>
		<path class="st11" d="M1879.5,462.7c0,0,14.4-22.8,17.9-42.2c2.5-13.9-4.6-65.4-56.4-58c0,0-15,1.5-29.2,11
			c-11.2,7.6-27.4,24-9.3,68.9l4.7,15.2L1879.5,462.7z"/>
		<path class="st14" d="M1816.2,491.6c0,0,65,1.1,65.1-39.4s8.5-67.6-33.1-70c-41.5-2.4-49.6,13-52.9,26.6
			C1792,422.2,1799.3,490.3,1816.2,491.6z"/>
		<path class="st11" d="M1877.6,389.7c0,0-44.4-30.4-58.5-9.4c-4.3-3.7-11.9-6.3-21.9,5.9c-15.1,18.3-1.7,50.6-1.7,50.6
			c6.2,0.7,7.6-20.5,10.9-30.8c2.4-7.8,10.6-15.7,14.5-19.2c5.7,12.8,21.3,43.4,42.8,48.9c27.3,7,39.2-0.3,39.2-0.3
			S1881.9,418.7,1877.6,389.7z"/>
		<path class="st9" d="M1994.3,862.6c-3.5,9.7-14.3,12.2-28.7,10.6c-27.5-3.2-68.3-21.7-97.7-34.4c-44.9-19.4-65.2-1.2-79.5-13.6
			s16.3-39.9-10.2-167.7c-9-43.3,47.9-136.3,47.9-136.3s3.9,25.2,59.5-5.4c0.3-0.2,23.4,30.6,44,69.8
			c22.8,43.2,44.6,95.4,38.2,122.3C1955.5,759.1,2004.5,834.3,1994.3,862.6z"/>
		<path class="st9" d="M1826.1,521.2l-33.6,137.9c0,0-4.2,7.4-10.7,18c-15.4,24.9-43.9,67.1-62.1,71.4c-9,2.1-28.1-5.4-49.3-16.1
			c-40-20.2-87.3-51.9-87.3-51.9c-3.1-18.3,12.9-33.3,12.9-33.3s95.8,36,105.3,36.7c20.8,1.5,41.9-98.7,61.2-132
			C1776.6,527.9,1826.1,521.2,1826.1,521.2z"/>
		<path class="st17" d="M1830.6,467c0,0-1.2,5.1-14,4.3c0,0-10.8-0.7-10.4-6.3C1806.2,465.1,1816.6,461.1,1830.6,467z"/>
		<path class="st7" d="M1994.3,862.6c-3.5,9.7-14.3,12.2-28.7,10.6c-19-8.3-101.2-40.1-100.3-61.7c1.4-31.9,15.8-33,5.6-72.4
			c-8.2-31.7,67.7-90.5,79.9-103.3c22.8,43.2,23.4,45.2,17,72.1C1955.5,759.1,2004.5,834.3,1994.3,862.6z"/>
		<path class="st7" d="M1781.8,677.1c-15.4,24.9-43.9,67.1-62.1,71.4c-9,2.1-28.1-5.4-49.3-16.1c15.4,4,30.4,3.9,45,2.5
			c15.8-1.5,20.4-20.9,45.4-49.9C1777,666.2,1781,670.9,1781.8,677.1z"/>
		<path class="st14" d="M1857.9,738.3c0,0-13.8-10.7-26.8-8.2c-13,2.6-19.4,11.5-18.9,15.6s7.4,15.6,17.3,16.6
			c9.9,1,38.2-6.1,38.2-6.1L1857.9,738.3z"/>
		<path class="st9" d="M1885.6,515.8c0,0,53,3.3,71.3,28.8c25.8,36,87.8,196.2,58.4,216.7c-33.1,23.1-161.2-0.7-161.2-0.7
			s-3.9-18.3,1.5-27.1s93.8-23.1,97.9-27.2c4.1-4.1-51-79.5-51-91.8C1902.5,602.5,1885.6,515.8,1885.6,515.8z"/>
	</g>
	<g>
		<g>
			<polygon class="st4" points="1844.1,810.3 1648.9,810.3 1613.7,687.6 1808.6,687.6 			"/>
			<polygon class="st6" points="1647.6,805.5 1904.8,805.5 1904.8,810.3 1648.9,810.3 			"/>
		</g>
		<path class="st6" d="M1710.9,746.9c-1.2-4.3,1.3-7.8,5.6-7.8c4.3,0,8.8,3.5,10.1,7.8s-1.3,7.8-5.6,7.8
			C1716.6,754.7,1712.1,751.2,1710.9,746.9z"/>
	</g>
</g>
<g id="code3">
	<path class="st15" d="M659.4,1106.9h-122c-15.7,0-28.4-12.7-28.4-28.4v-122c0-15.7,12.7-28.4,28.4-28.4h122
		c15.7,0,28.4,12.7,28.4,28.4v122C687.8,1094.2,675.1,1106.9,659.4,1106.9z"/>
	<path class="st12" d="M683,1106.9h-122c-15.7,0-28.4-12.7-28.4-28.4v-122c0-15.7,12.7-28.4,28.4-28.4h122
		c15.7,0,28.4,12.7,28.4,28.4v122C711.5,1094.2,698.7,1106.9,683,1106.9z"/>
	<path class="st17" d="M663.2,1032.2l-11-6.1c0.7-2.7,1.1-5.6,1.1-8.5c0-5.2-1.2-10.1-3.2-14.6l9.8-8L649,981.8l-9.8,8.1
		c-3.5-2.6-7.5-4.5-11.7-5.6v-12.7h-17.1v12.7c-6.4,1.6-12.1,5.1-16.5,9.7l-11.1-6.1l-8.2,14.9l11.1,6.1c-0.7,2.8-1.1,5.7-1.1,8.6
		c0,5.2,1.2,10.1,3.2,14.5l-9.7,8l10.8,13.2l9.7-8c3.5,2.6,7.5,4.5,11.8,5.6v12.6h17.1v-12.6c6.4-1.6,12.1-5.1,16.5-9.8l11,6.1
		L663.2,1032.2z M618.9,1038.5c-11.5,0-20.9-9.4-20.9-20.9c0-11.5,9.4-20.9,20.9-20.9s20.9,9.4,20.9,20.9
		C639.8,1029.1,630.4,1038.5,618.9,1038.5z"/>
</g>
<g id="code2">
	<path class="st6" d="M1557.2,346.6h-122c-15.7,0-28.4-12.7-28.4-28.4v-122c0-15.7,12.7-28.4,28.4-28.4h122
		c15.7,0,28.4,12.7,28.4,28.4v122C1585.6,333.8,1572.9,346.6,1557.2,346.6z"/>
	<path class="st4" d="M1580.9,346.6h-122c-15.7,0-28.4-12.7-28.4-28.4v-122c0-15.7,12.7-28.4,28.4-28.4h122
		c15.7,0,28.4,12.7,28.4,28.4v122C1609.3,333.8,1596.6,346.6,1580.9,346.6z"/>
	<path class="st17" d="M1438.6,254.8l55.5-25.8v12.2l-41.9,18.4v0.2l41.9,18.4v12.2l-55.5-25.8V254.8z"/>
	<path class="st17" d="M1502.6,302.7l24.7-83.8h11.7l-24.7,83.8H1502.6z"/>
	<path class="st17" d="M1601.2,265.1l-55.5,25.4v-12.2l42.9-18.4v-0.2l-42.9-18.4V229l55.5,25.4V265.1z"/>
</g>
<g id="code1">
	<path class="st18" d="M380.6,178.8h-122c-15.7,0-28.4-12.7-28.4-28.4v-122c0-15.7,12.7-28.4,28.4-28.4h122
		C396.3,0,409,12.7,409,28.4v122C409,166.1,396.3,178.8,380.6,178.8z"/>
	<path class="st3" d="M404.3,178.8h-122c-15.7,0-28.4-12.7-28.4-28.4v-122c0-15.7,12.7-28.4,28.4-28.4h122
		c15.7,0,28.4,12.7,28.4,28.4v122C432.7,166.1,420,178.8,404.3,178.8z"/>
	<path class="st17" d="M282.1,83.6c10.4-0.3,11.5-5.7,11.5-10.2c0-3.8-0.5-7.7-0.9-11.8c-0.5-4.1-0.8-8.1-0.8-11.9
		c0-14.2,8.9-20.4,22.9-20.4h5.3v12.8h-2.7c-6.8,0-9.2,4.1-9.2,10.7c0,2.7,0.5,5.4,0.8,8.6c0.3,3,0.8,6.5,0.8,10.2
		c0.2,11.5-4.5,15.7-12.8,17.5v0.3c8.3,1.8,13,6.2,12.8,17.6c0,3.9-0.5,7.4-0.8,10.6c-0.3,3-0.8,5.9-0.8,8.5
		c0,6.6,2.3,10.9,9.2,10.9h2.7v12.7h-5.4c-13.4,0-22.8-5.4-22.8-20.5c0-3.8,0.3-7.8,0.8-11.9c0.5-4.1,0.9-8,0.9-11.8
		c0-4.2-1.1-10-11.5-10.2V83.6z"/>
	<path class="st17" d="M398.2,95.2c-10.2,0.3-11.5,6-11.5,10.2c0,3.8,0.5,7.7,0.9,11.8c0.5,4.1,0.9,8.1,0.9,11.9
		c0,15.1-9.3,20.5-22.9,20.5h-5.4v-12.7h2.7c6.9-0.2,9.2-4.2,9.2-10.9c0-2.6-0.3-5.4-0.8-8.5c-0.3-3.2-0.8-6.6-0.8-10.6
		c-0.2-11.5,4.5-15.8,13-17.6v-0.3c-8.5-1.8-13.1-6-13-17.5c0-3.8,0.5-7.2,0.8-10.2c0.5-3.2,0.8-5.9,0.8-8.6
		c0-6.6-2.4-10.6-9.2-10.7h-2.7V29.2h5.3c14.2,0,23.1,6.2,23.1,20.4c0,3.8-0.5,7.8-0.9,11.9c-0.5,4.1-0.9,8-0.9,11.8
		c0,4.5,1.2,10,11.5,10.2L398.2,95.2L398.2,95.2z"/>
</g>
</svg>
