<?xml version="1.0" encoding="UTF-8" standalone="no"?>
<svg
        xmlns="http://www.w3.org/2000/svg"
        version="1.1"
        viewBox="0 0 4000 2666.6667">
    <g transform="scale(0.1) scale(1, -1) translate(0, -16000)">
        <path
                d="m 23577.6,3754.2 c 0,0 2713.8,-498.3 3577.7,1387.2 1120.8,2446.1 -1181.8,4300.9 -2947.8,3955.3 -1829,-357.9 -2579.4,1330.9 -3526.3,3019.6 -1045.5,1864.3 -2330.5,3728.7 -5571.1,2839.1 -537.9,-147.7 -1359.4,22.1 -2276,192 -2042.7,378.3 -4557.83,756.7 -5461.06,-2377.5 C 7061.88,11690.1 5959.4,11571.2 4358.98,10886.1 1226.8,9545.2 2658.96,3731.6 4897.02,3708.8 7135.08,3686 23577.6,3754.2 23577.6,3754.2"
                style="fill:#ebf2f9;fill-opacity:1;fill-rule:nonzero;stroke:none"
                id="path16"/>
        <path
                d="m 7490.13,6474.9 c 0,0 440.04,513.4 27.13,839.5 0,0 -301.6,182.6 -547.52,167.7 0,0 348.47,-584.3 235.73,-642.4 -112.74,-58.1 -341.34,679.1 -341.34,679.1 0,0 -686.35,66.5 -907.14,-39.6 0,0 586.74,-480.1 463.17,-508.7 -123.57,-28.6 -757.33,442.7 -757.33,442.7 0,0 -638.79,-108.7 -604.72,-498.4 34.05,-389.7 254.17,-510 350.9,-499.7 96.75,10.4 662.65,226.4 674.97,147.2 12.32,-79.3 -328.32,-338.4 -566.86,-350.5 0,0 450.37,-496.7 749.68,-353.3 299.32,143.3 324.86,370.5 511.44,455.8 186.58,85.2 345.85,85 268.82,-1.9 -77.03,-87 -414.71,-171.4 -521.4,-360.2 -106.7,-188.7 -202.44,-316 107.24,-269.4 309.67,46.6 813.03,273.2 835.13,532.7 22.1,259.4 22.1,259.4 22.1,259.4"
                style="fill:#82b378;fill-opacity:1;fill-rule:nonzero;stroke:none"
                id="path18"/>
        <path
                d="m 5371.98,6904.2 c 0,0 1735,66.9 2118.15,-429.3 0,0 84.74,-253.8 345.49,-484.9 l 40.64,-110.7 c 0,0 -300.65,317 -408.23,336.2 0,0 168.24,614.7 -2096.05,688.7"
                style="fill:#82b378;fill-opacity:1;fill-rule:nonzero;stroke:none"
                id="path20"/>
        <path
                d="m 7835.62,5990 c 0,0 372.4,-275.4 398.27,-767.5 l -67.6,-6 c 0,0 -118.93,508.8 -333.91,707.8 -214.97,199 3.24,65.7 3.24,65.7"
                style="fill:#82b378;fill-opacity:1;fill-rule:nonzero;stroke:none"
                id="path22"/>
        <path
                d="m 9028.64,7120.5 c 0,0 -699.99,392 -373.32,924 0,0 261.32,326.7 541.32,410.7 0,0 -149.33,-793.3 0,-812 149.34,-18.7 102.67,896 102.67,896 0,0 737.29,354.6 1026.59,326.6 0,0 -457.27,-774.6 -307.9,-756 149.3,18.7 662.6,802.7 662.6,802.7 0,0 756,140 877.3,-308 121.4,-448 -74.6,-672 -186.6,-700 -112,-28 -830.7,-18.6 -812,-112 18.6,-93.3 504,-242.6 774.6,-158.6 0,0 -298.6,-737.4 -690.6,-700 -392,37.3 -513.3,280 -756,298.6 -242.67,18.7 -420,-46.6 -298.66,-112 121.32,-65.3 531.96,-21.4 727.96,-188 196,-166.6 354.7,-269.3 -9.3,-343.9 -364.01,-74.7 -1017.33,-28 -1148,251.9 -130.66,280 -130.66,280 -130.66,280"
                style="fill:#a8d29f;fill-opacity:1;fill-rule:nonzero;stroke:none"
                id="path24"/>
        <path
                d="m 11212.6,8464.5 c 0,0 -1959.95,-634.6 -2183.96,-1344 0,0 9.34,-317.3 -186.66,-681.3 v -140 c 0,0 205.33,476 317.32,541.3 0,0 -438.64,616 2053.3,1624"
                style="fill:#82b378;fill-opacity:1;fill-rule:nonzero;stroke:none"
                id="path26"/>
        <path
                d="m 8841.98,6439.2 c 0,0 -302.25,-459 -129.94,-1017.7 l 77.76,20.9 c 0,0 -75.48,615.4 82.66,924.9 158.14,309.5 -30.48,71.9 -30.48,71.9"
                style="fill:#82b378;fill-opacity:1;fill-rule:nonzero;stroke:none"
                id="path28"/>
        <path
                d="m 7915.03,7661.1 c 0,0 922.71,516.8 492.1,1218 0,0 -344.47,430.6 -713.56,541.3 0,0 196.85,-1045.7 0,-1070.3 -196.84,-24.6 -135.32,1181.1 -135.32,1181.1 0,0 -971.92,467.5 -1353.31,430.6 0,0 602.84,-1021.2 405.99,-996.6 -196.85,24.6 -873.49,1058.1 -873.49,1058.1 0,0 -996.53,184.5 -1156.47,-406 -159.93,-590.5 98.42,-885.8 246.06,-922.7 147.63,-36.9 1094.95,-24.6 1070.34,-147.7 -24.61,-123 -664.35,-319.8 -1021.13,-209.1 0,0 393.69,-971.9 910.41,-922.7 516.71,49.2 676.65,369.1 996.52,393.7 319.87,24.6 553.63,-61.5 393.69,-147.7 -159.94,-86.1 -701.25,-28.2 -959.62,-247.8 -258.35,-219.6 -467.51,-355 12.31,-453.4 479.8,-98.4 1341,-36.9 1513.24,332.2 172.24,369 172.24,369 172.24,369"
                style="fill:#a8d29f;fill-opacity:1;fill-rule:nonzero;stroke:none"
                id="path30"/>
        <path
                d="m 5036.17,9432.8 c 0,0 2583.59,-836.6 2878.86,-1771.7 0,0 -12.31,-418.3 246.05,-898.1 v -184.5 c 0,0 -270.65,627.4 -418.3,713.6 0,0 578.24,811.9 -2706.61,2140.7"
                style="fill:#82b378;fill-opacity:1;fill-rule:nonzero;stroke:none"
                id="path32"/>
        <path
                d="m 8161.08,6763 c 0,0 398.43,-605 171.29,-1341.5 l -102.5,27.5 c 0,0 99.5,811.3 -108.96,1219.2 -208.46,408 40.17,94.8 40.17,94.8"
                style="fill:#82b378;fill-opacity:1;fill-rule:nonzero;stroke:none"
                id="path34"/>
        <path
                d="m 7946.12,3824.4 c -998.22,0 -1807.44,809.2 -1807.44,1807.4 h 3614.88 c 0,-998.2 -809.22,-1807.4 -1807.44,-1807.4"
                style="fill:#f1a34f;fill-opacity:1;fill-rule:nonzero;stroke:none"
                id="path36"/>
        <path
                d="m 7501.36,3838.2 c 73.51,-9.2 148.47,-13.8 224.56,-13.8 998.21,0 1807.35,809.2 1807.35,1807.4 h -449.02 c 0,-922.2 -690.62,-1683 -1582.89,-1793.6"
                style="fill:#ffb973;fill-opacity:1;fill-rule:nonzero;stroke:none"
                id="path38"/>
        <path
                d="m 6336.71,3955.4 h 3218.82 c 123.15,0 222.99,-99.9 222.99,-223 h -3664.8 c 0,123.1 99.83,223 222.99,223"
                style="fill:#f1a34f;fill-opacity:1;fill-rule:nonzero;stroke:none"
                id="path40"/>
        <path
                d="m 9812.99,5631.8 v -55.4 H 6097.58 v 55.4 h 3715.41"
                style="fill:#d86713;fill-opacity:1;fill-rule:nonzero;stroke:none"
                id="path42"/>
        <path
                d="m 11982.7,10831.7 -563.5,-6700.5 c 0,0 -59.1,-406.1 243.1,-406.9 496.7,-1.1 2472.5,0 2472.5,0 0,0 -373.9,84.6 -369.4,274.8 5.4,224.3 658.7,6896 658.7,6896 l -2441.4,-63.4"
                style="fill:#4a75cb;fill-opacity:1;fill-rule:nonzero;stroke:none"
                id="path44"/>
        <path
                d="m 14295.1,3845.9 c -97.7,-0.3 -1984.8,-6.2 -2468.6,0 -210.8,2.6 -247.8,187.5 -249.5,307.1 -0.9,57.3 6.4,99.7 6.4,99.7 l 14.6,174.2 37.4,443.9 33,392.1 42.4,503.9 35.7,425.4 400.4,4761.2 2441.4,63.3 c 0,0 -275.2,-2792.1 -469.8,-4824.5 -21.7,-226.5 -42.4,-443.6 -61.5,-646.3 -6.2,-64.7 -12.2,-127.9 -18,-189.6 -18,-192.2 -34.5,-368.8 -48.9,-524.7 -7.5,-82.2 -14.5,-158.6 -20.8,-228.5 -24.9,-274.1 -39.4,-449.1 -39.6,-482.4 -0.1,-19.4 1.5,-37.5 4.7,-54.3 40.1,-213.5 324,-220.5 360.7,-220.5"
                style="fill:#afcdfb;fill-opacity:1;fill-rule:nonzero;stroke:none"
                id="path46"/>
        <path
                d="M 17774.7,14477.9 H 6053.77 L 7426.42,8964.2 7614.37,8209.1 8253.68,5641 H 20131.2 l -2356.5,8836.9"
                style="fill:#afcdfb;fill-opacity:1;fill-rule:nonzero;stroke:none"
                id="path48"/>
        <path
                d="M 6053.74,14477.9 5863.51,14414.5 8000.77,5449.1 8253.7,5641 6053.74,14477.9"
                style="fill:#699dee;fill-opacity:1;fill-rule:nonzero;stroke:none"
                id="path50"/>
        <path
                d="M 8000.77,5449.2 H 19805.1 l 326,191.7 H 8253.7 l -252.93,-191.7"
                style="fill:#4a75cb;fill-opacity:1;fill-rule:nonzero;stroke:none"
                id="path52"/>
        <path
                d="m 12146.1,3721.8 h 2555.8 v 121.4 h -2555.8 v -121.4"
                style="fill:#4a75cb;fill-opacity:1;fill-rule:nonzero;stroke:none"
                id="path54"/>
        <path
                d="m 14052.2,5449.2 -13.2,-92.9 -2403.6,-485.5 33,392.1 15.7,186.3 h 2368.1"
                style="fill:#4a75cb;fill-opacity:1;fill-rule:nonzero;stroke:none"
                id="path56"/>
        <path
                d="m 14295.1,3845.9 c -97.7,-0.3 -1984.8,-6.2 -2468.6,0 -210.8,2.6 -247.8,187.5 -249.5,307.1 l 2392.3,450.1 c -24.9,-274.1 -39.4,-449.1 -39.6,-482.4 -0.1,-19.4 1.5,-37.5 4.7,-54.3 40.1,-213.5 324,-220.5 360.7,-220.5"
                style="fill:#699dee;fill-opacity:1;fill-rule:nonzero;stroke:none"
                id="path58"/>
        <path
                d="m 8253.7,5641 v 0 h -0.02 v 0"
                style="fill:#7daf90;fill-opacity:1;fill-rule:nonzero;stroke:none"
                id="path60"/>
        <path
                d="m 8253.68,5641 v 0 l -89.11,358 -343.28,1379.1 5495.61,-1.1 -5063.22,-1736"
                style="fill:#a1c3f8;fill-opacity:1;fill-rule:nonzero;stroke:none"
                id="path62"/>
        <path
                d="m 8253.68,5641 -89.11,358 89.13,-358 h -0.02"
                style="fill:#699dee;fill-opacity:1;fill-rule:nonzero;stroke:none"
                id="path64"/>
        <path
                d="M 17774.7,14477.9 H 6053.75 L 7820.26,7378 l 11856.24,-2.2 -1901.8,7102.1"
                style="fill:#699dee;fill-opacity:1;fill-rule:nonzero;stroke:none"
                id="path66"/>
        <path
                d="m 14507.3,6478 c -33.9,174.2 -202.5,315.4 -376.7,315.4 -174.2,0 -287.9,-141.2 -254,-315.4 33.8,-174.2 202.4,-315.4 376.6,-315.4 174.2,0 287.9,141.2 254.1,315.4"
                style="fill:#4a75cb;fill-opacity:1;fill-rule:nonzero;stroke:none"
                id="path68"/>
        <path
                d="M 19123.7,7683.6 H 8149.28 l -1242.83,4951 -95.26,379.7 -81.32,323.8 -190.6,759.4 H 17355.5 l 209.3,-759.4 89.3,-323.8 104.6,-379.7 1365,-4951"
                style="fill:#1c468a;fill-opacity:1;fill-rule:nonzero;stroke:none"
                id="path70"/>
        <path
                d="M 17355.5,14097.5 H 6539.27 l 190.6,-759.4 H 17564.8 l -209.3,759.4"
                style="fill:#c65447;fill-opacity:1;fill-rule:nonzero;stroke:none"
                id="path72"/>
        <path
                d="m 7057.98,13849.2 c -52.42,0 -84.32,-42.5 -71.25,-94.9 13.06,-52.4 66.16,-94.9 118.59,-94.9 52.43,0 84.33,42.5 71.26,94.9 -13.07,52.4 -66.17,94.9 -118.6,94.9"
                style="fill:#e9f3fe;fill-opacity:1;fill-rule:nonzero;stroke:none"
                id="path74"/>
        <path
                d="m 7373.39,13849.2 c -52.42,0 -84.33,-42.5 -71.26,-94.9 13.08,-52.4 66.18,-94.9 118.6,-94.9 52.42,0 84.33,42.5 71.26,94.9 -13.07,52.4 -66.17,94.9 -118.6,94.9"
                style="fill:#e9f3fe;fill-opacity:1;fill-rule:nonzero;stroke:none"
                id="path76"/>
        <path
                d="m 7831.62,13754.3 c -13.07,52.4 -66.17,94.9 -118.6,94.9 -52.42,0 -84.32,-42.5 -71.25,-94.9 13.07,-52.4 66.16,-94.9 118.59,-94.9 52.43,0 84.33,42.5 71.26,94.9"
                style="fill:#e9f3fe;fill-opacity:1;fill-rule:nonzero;stroke:none"
                id="path78"/>
        <path
                d="M 27019.1,3700.3 H 2980.86 c -11.8,0 -21.45,9.7 -21.45,21.5 0,11.8 9.65,21.4 21.45,21.4 H 27019.1 c 11.8,0 21.5,-9.6 21.5,-21.4 0,-11.8 -9.7,-21.5 -21.5,-21.5"
                style="fill:#283250;fill-opacity:1;fill-rule:nonzero;stroke:none"
                id="path80"/>
        <path
                d="m 23873.6,9106.8 c -866.4,-114.3 -454.1,-1118.9 -1776.1,-2520.5 -955.9,-1013.5 -3052.7,837.8 -4126.5,-203 -933.2,-904.5 343.4,-2659.1 343.4,-2659.1 h 5629.5 c 2642.9,1914.2 652,5478 -70.3,5382.6"
                style="fill:#a8d29f;fill-opacity:1;fill-rule:nonzero;stroke:none"
                id="path82"/>
        <path
                d="m 17285.1,4953.4 c -22.5,-35.9 -55.6,-49.5 -96,-47.3 l -0.5,0.1 c -74.8,4.1 -174.3,62 -277.6,132.9 -13.2,9.1 -25.2,17.1 -36.1,23.9 -2.9,1.8 -5.7,3.6 -8.6,5.2 -2.2,1.4 -4.5,2.7 -6.6,4 -106.7,63 -115.2,24.7 -325.6,132.3 -239.8,122.7 -280.2,244.7 -273.8,284.8 5.5,34 122.2,3.5 253.2,-29.7 6.3,-1.7 12.7,-3.2 19.1,-4.9 17.4,-4.4 35,-8.8 52.5,-13.1 156.9,-38 213.5,0.9 406.4,79.3 156.8,63.6 825.8,522.4 825.8,522.4 l 162.2,-324.7 c 0,0 -558.3,-280.6 -614.8,-421.6 -30.1,-75.3 -10.2,-143.6 -28.5,-212.8 -1.2,-4.8 -2.5,-9.7 -4,-14.4 -12,-39.8 -24.5,-80.5 -47.1,-116.4"
                style="fill:#e49963;fill-opacity:1;fill-rule:nonzero;stroke:none"
                id="path84"/>
        <path
                d="m 17285.1,4953.4 c -22.5,-35.9 -55.6,-49.5 -96,-47.3 l -0.5,0.1 c -76.3,9.6 -174.8,65.6 -277,133.5 -13.3,8.8 -25.5,16.5 -36.7,23.3 -2.9,1.8 -5.7,3.6 -8.6,5.2 -2.2,1.4 -4.5,2.7 -6.6,4 -106.7,63 -115.2,24.7 -325.6,132.3 -239.8,122.7 -280.2,244.7 -273.8,284.8 5.5,34 122.2,3.5 253.2,-29.7 23.2,-31 137.5,-172.9 330.7,-247.9 169.7,-66.3 367.8,-85 492,-127.5 -1.2,-4.8 -2.5,-9.7 -4,-14.4 -12,-39.8 -24.5,-80.5 -47.1,-116.4"
                style="fill:#d86713;fill-opacity:1;fill-rule:nonzero;stroke:none"
                id="path86"/>
        <path
                d="m 17849,3819.2 c -16.2,-111.4 -174.3,-101.4 -352.2,-67.9 -177.9,33.4 -133.4,-15.3 -384.8,-1.1 -251.4,14.3 -332.1,103.4 -341.7,140.2 -8.6,32.6 114.3,50.8 245.9,73.2 16.5,2.7 33.1,5.7 49.8,8.6 148.5,26.8 252.8,129.2 384.4,215.7 124.6,82 300.2,398.1 300.2,398.1 l 344.2,-8.7 c 0,0 -165.2,-282.8 -228.4,-405.3 -37.2,-72.1 -30,-164.3 -21.1,-235.4 4.7,-38.6 9.4,-78.1 3.7,-117.4"
                style="fill:#e49963;fill-opacity:1;fill-rule:nonzero;stroke:none"
                id="path88"/>
        <path
                d="m 17499.5,3738.4 c -178.9,27.7 -132.8,-19.6 -384.5,-13.5 -251.8,6 -335.8,134.3 -346.7,170.7 -9.6,32.3 62,41.2 192.9,67.8 l 52,11 c 0,0 159.2,-135 367.2,-122 169.5,10.5 344.5,74.4 461.4,82.6 6,-38.4 12,-77.8 7.5,-117.2 -12.5,-111.9 -170.9,-107.1 -349.8,-79.4"
                style="fill:#d86713;fill-opacity:1;fill-rule:nonzero;stroke:none"
                id="path90"/>
        <path
                d="m 18516.2,8953.4 c 0,0 -81.8,200.3 -171.7,208.5 -90,8.2 -376.2,53.1 -396.6,12.3 -20.5,-40.9 0,-188.1 61.3,-241.3 61.3,-53.1 441.6,-139 441.6,-139 l 65.4,159.5"
                style="fill:#e49963;fill-opacity:1;fill-rule:nonzero;stroke:none"
                id="path92"/>
        <path
                d="M 19148,7153 17455.2,5870.8 c 0,0 22.2,-112 83.7,-207.3 56.5,-87.6 162.3,-175.8 162.3,-175.8 0,0 1777.3,726.9 2060.9,1163.6 C 20045.8,7088 19148,7153 19148,7153"
                style="fill:#aa413e;fill-opacity:1;fill-rule:nonzero;stroke:none"
                id="path94"/>
        <path
                d="m 21923,7042 c 0,0 -2160.9,603.7 -2626,425.7 -465.1,-178.1 -1734.6,-3081.9 -1734.6,-3081.9 0,0 34.4,-40.9 123.7,-69 83.1,-26.2 280.1,-13.7 280.1,-13.7 0,0 1223.5,1168.2 1359,1497 135.5,328.8 180.2,637.5 334.5,615.1 154.4,-22.3 2009.8,-642.4 2399.1,-192.8 389.3,449.6 251.7,999.3 251.7,999.3 L 21923,7042"
                style="fill:#c65447;fill-opacity:1;fill-rule:nonzero;stroke:none"
                id="path96"/>
        <path
                d="m 20694.5,10255.6 c -33.9,70.1 -71.9,194.6 -90.4,416.5 2.8,-22.1 41.1,-301.9 148.7,-460.3 442,-290.2 1289.2,-1259.2 1272.4,-1442.8 0,0 298.5,506.1 303.6,509.1 0,0 550.5,700 -101.9,1101 -331.6,203.8 -329.9,465.3 -316.1,692.5 14,227.3 -90.4,1205.3 -754.7,949.4 0,0 -106.6,47.3 -154.3,40.2 0,0 39,-7.4 58.8,-27.9 -77,4.6 -187.1,-1.1 -279,-53.4 -243.5,-138.3 -461.4,-1379.8 -87.1,-1724.3"
                style="fill:#1c468a;fill-opacity:1;fill-rule:nonzero;stroke:none"
                id="path98"/>
        <path
                d="m 20778.9,10197.4 c -2.2,-1 213.5,-113 375.7,-68.6 152.5,41.6 252.2,239.4 250.1,239.8 -64.6,12.8 -83.2,101.6 -81.9,483.2 l -29.2,-5.8 -491.1,-97.2 c 0,0 11.2,-154.6 11.5,-300.2 0.3,-122.2 -7.1,-238.2 -35.1,-251.2"
                style="fill:#e49963;fill-opacity:1;fill-rule:nonzero;stroke:none"
                id="path100"/>
        <path
                d="m 20802.5,10748.8 c 0,0 11.2,-154.6 11.5,-300.2 274.8,7.7 420.1,258.5 479.6,397.4 l -491.1,-97.2"
                style="fill:#d68d5d;fill-opacity:1;fill-rule:nonzero;stroke:none"
                id="path102"/>
        <path
                d="m 21344.3,10899.5 c 0,0 144.1,227.5 178.6,422.1 24.7,138.9 -46,653.9 -563.5,579.7 0,0 -150.3,-14.8 -291.6,-110.2 -112.3,-75.9 -274.5,-239.7 -93.2,-689 l 47.1,-151.8 722.6,-50.8"
                style="fill:#1c468a;fill-opacity:1;fill-rule:nonzero;stroke:none"
                id="path104"/>
        <path
                d="m 20710.7,10610.9 c 0,0 650.2,-10.7 650.7,394.3 0.4,405 84.7,676.4 -330.5,700.4 -415.1,24 -495.9,-130.5 -529,-265.7 -33,-135.1 39.7,-815.8 208.8,-829"
                style="fill:#e49963;fill-opacity:1;fill-rule:nonzero;stroke:none"
                id="path106"/>
        <path
                d="m 21324.7,11630.1 c 0,0 -444.1,303.7 -584.6,93.7 -42.6,36.5 -118.5,63 -218.8,-58.6 -150.8,-182.8 -16.6,-505.7 -16.6,-505.7 61.8,-7.2 76.4,205.1 108.8,308.2 24.5,77.8 106.1,157.2 144.7,191.6 56.8,-127.9 212.8,-433.9 427.8,-489.2 273.2,-70.3 391.8,2.9 391.8,2.9 0,0 -209.6,166.5 -253.1,457.1"
                style="fill:#1c468a;fill-opacity:1;fill-rule:nonzero;stroke:none"
                id="path108"/>
        <path
                d="m 22491.9,6901.2 c -35.1,-97.4 -142.6,-122.5 -286.8,-105.5 -274.8,32.1 -683.1,216.6 -977.3,344.2 -448.5,194.4 -652.4,11.7 -795.1,135.5 -142.7,123.8 163.1,398.9 -102,1676.5 -89.9,433.3 479.4,1362.9 479.4,1362.9 0,0 39.5,-251.9 594.6,53.8 2.8,1.6 233.7,-306.2 440.4,-697.8 227.7,-432 445.9,-953.8 381.8,-1222.8 -122.4,-512.6 366.9,-1263.9 265,-1546.8"
                style="fill:#699dee;fill-opacity:1;fill-rule:nonzero;stroke:none"
                id="path110"/>
        <path
                d="m 20810.1,10314.8 -335.6,-1379 c 0,0 -41.8,-74.4 -107.4,-180.3 -153.8,-248.8 -438.5,-671.3 -620.8,-714.2 -89.9,-21.2 -281.2,53.6 -492.8,160.5 -400.1,202.2 -873.2,519 -873.2,519 -30.6,183.5 129,333.1 129,333.1 0,0 958.3,-360.2 1053.5,-367 207.5,-14.8 418.6,986.5 612.5,1320.1 140.1,241.3 634.8,307.8 634.8,307.8"
                style="fill:#699dee;fill-opacity:1;fill-rule:nonzero;stroke:none"
                id="path112"/>
        <path
                d="m 20855.3,10856.4 c 0,0 -12.2,-51.4 -140.2,-43.5 0,0 -107.4,6.6 -104.1,63.2 0,0 104.2,40.2 244.3,-19.7"
                style="fill:#ffffff;fill-opacity:1;fill-rule:nonzero;stroke:none"
                id="path114"/>
        <path
                d="m 22491.9,6901.2 c -35.1,-97.4 -142.6,-122.5 -286.8,-105.5 -190.2,82.8 -1011.9,401.2 -1002.8,616.9 13.7,319.4 158.1,329.6 56.1,723.8 -81.8,316.5 677.4,905.1 798.6,1033 227.7,-432 234,-452.4 169.9,-721.4 -122.4,-512.6 366.9,-1263.9 265,-1546.8"
                style="fill:#4a75cb;fill-opacity:1;fill-rule:nonzero;stroke:none"
                id="path116"/>
        <path
                d="m 20367.1,8755.5 c -153.8,-248.8 -438.5,-671.3 -620.8,-714.2 -89.9,-21.2 -281.2,53.6 -492.8,160.5 154.5,-39.8 304.5,-38.7 450.3,-24.6 158,15.3 203.9,209 453.6,499.5 162,188.4 201.8,141 209.7,78.8"
                style="fill:#4a75cb;fill-opacity:1;fill-rule:nonzero;stroke:none"
                id="path118"/>
        <path
                d="m 21128.4,8144 c 0,0 -137.6,107.1 -267.6,81.6 -130,-25.5 -193.7,-114.7 -188.6,-155.5 5.1,-40.7 74,-155.4 173.3,-165.6 99.4,-10.2 382.3,61.1 382.3,61.1 l -99.4,178.4"
                style="fill:#e49963;fill-opacity:1;fill-rule:nonzero;stroke:none"
                id="path120"/>
        <path
                d="m 21404.7,10368.6 c 0,0 530,-32.6 713.4,-288.5 258.3,-360.2 878.1,-1962.4 584.5,-2167.1 -330.7,-230.6 -1612.4,6.8 -1612.4,6.8 0,0 -39.1,182.6 15.3,271 54.4,88.3 937.9,231 978.6,271.8 40.8,40.8 -509.7,795.2 -509.7,917.5 0,122.3 -169.7,988.5 -169.7,988.5"
                style="fill:#699dee;fill-opacity:1;fill-rule:nonzero;stroke:none"
                id="path122"/>
        <path
                d="m 20990.1,7424.1 h -1952 l -351.9,1227.2 h 1949 l 354.9,-1227.2"
                style="fill:#f1a34f;fill-opacity:1;fill-rule:nonzero;stroke:none"
                id="path124"/>
        <path
                d="m 19025.2,7471.9 h 2571.5 v -47.8 h -2558.6 l -12.9,47.8"
                style="fill:#d86713;fill-opacity:1;fill-rule:nonzero;stroke:none"
                id="path126"/>
        <path
                d="m 19657.9,8057.6 c -12.3,43.1 12.6,78.1 55.7,78.1 43.2,0 88.2,-35 100.5,-78.1 12.4,-43.1 -12.5,-78.1 -55.7,-78.1 -43.1,0 -88.1,35 -100.5,78.1"
                style="fill:#d86713;fill-opacity:1;fill-rule:nonzero;stroke:none"
                id="path128"/>
        <path
                d="M 9142.71,4457.4 H 7923.03 c -156.95,0 -284.19,127.2 -284.19,284.2 v 1219.6 c 0,157 127.24,284.2 284.19,284.2 h 1219.68 c 156.96,0 284.19,-127.2 284.19,-284.2 V 4741.6 c 0,-157 -127.23,-284.2 -284.19,-284.2"
                style="fill:#aa413e;fill-opacity:1;fill-rule:nonzero;stroke:none"
                id="path130"/>
        <path
                d="M 9379.54,4457.4 H 8159.86 c -156.95,0 -284.19,127.2 -284.19,284.2 v 1219.6 c 0,157 127.24,284.2 284.19,284.2 h 1219.68 c 156.96,0 284.2,-127.2 284.2,-284.2 V 4741.6 c 0,-157 -127.24,-284.2 -284.2,-284.2"
                style="fill:#c65447;fill-opacity:1;fill-rule:nonzero;stroke:none"
                id="path132"/>
        <path
                d="m 18121.2,12061.1 h -1219.7 c -157,0 -284.2,127.3 -284.2,284.2 V 13565 c 0,157 127.2,284.2 284.2,284.2 h 1219.7 c 156.9,0 284.2,-127.2 284.2,-284.2 v -1219.7 c 0,-156.9 -127.3,-284.2 -284.2,-284.2"
                style="fill:#d86713;fill-opacity:1;fill-rule:nonzero;stroke:none"
                id="path134"/>
        <path
                d="m 18358,12061.1 h -1219.7 c -156.9,0 -284.2,127.3 -284.2,284.2 V 13565 c 0,157 127.3,284.2 284.2,284.2 H 18358 c 157,0 284.2,-127.2 284.2,-284.2 v -1219.7 c 0,-156.9 -127.2,-284.2 -284.2,-284.2"
                style="fill:#f1a34f;fill-opacity:1;fill-rule:nonzero;stroke:none"
                id="path136"/>
        <path
                d="M 6354.94,13738.8 H 5135.26 c -156.96,0 -284.2,127.2 -284.2,284.2 v 1219.7 c 0,156.9 127.24,284.2 284.2,284.2 h 1219.68 c 156.95,0 284.19,-127.3 284.19,-284.2 V 14023 c 0,-157 -127.24,-284.2 -284.19,-284.2"
                style="fill:#82b479;fill-opacity:1;fill-rule:nonzero;stroke:none"
                id="path138"/>
        <path
                d="M 6591.77,13738.8 H 5372.09 c -156.96,0 -284.19,127.2 -284.19,284.2 v 1219.7 c 0,156.9 127.23,284.2 284.19,284.2 h 1219.68 c 156.95,0 284.19,-127.3 284.19,-284.2 V 14023 c 0,-157 -127.24,-284.2 -284.19,-284.2"
                style="fill:#a8d29f;fill-opacity:1;fill-rule:nonzero;stroke:none"
                id="path140"/>
        <path
                d="m 8737.93,5141.8 c -115.43,0 -209,93.6 -209,209 0,115.4 93.57,209 209,209 115.43,0 209.01,-93.6 209.01,-209 0,-115.4 -93.58,-209 -209.01,-209 z m 443.47,62.9 -110.45,60.8 c 6.97,27.3 10.68,55.9 10.68,85.3 0,52.1 -11.65,101.5 -32.39,145.7 l 97.81,80.3 -108.29,131.9 -98.03,-80.4 c -34.78,25.4 -74.48,44.5 -117.45,55.5 v 126.8 h -170.69 v -126.8 c -64.02,-16.3 -120.78,-50.7 -164.72,-97.3 l -111.09,61.1 -82.31,-149.5 110.71,-61 c -7.14,-27.5 -10.95,-56.5 -10.95,-86.3 0,-51.7 11.52,-100.8 32.01,-144.8 l -97.43,-80 108.29,-131.9 97.28,79.8 c 34.95,-25.7 74.92,-45 118.21,-56.1 v -125.6 h 170.69 v 125.6 c 64.36,16.5 121.4,51.1 165.45,98.1 l 110.36,-60.7 82.31,149.5"
                style="fill:#ffffff;fill-opacity:1;fill-rule:nonzero;stroke:none"
                id="path142"/>
        <path
                d="m 16935.2,12979.1 554.7,257.7 v -122.5 l -419.5,-183.7 v -2.4 l 419.5,-183.7 V 12622 l -554.7,257.7 v 99.4"
                style="fill:#ffffff;fill-opacity:1;fill-rule:nonzero;stroke:none"
                id="path144"/>
        <path
                d="m 17575.4,12500.3 247.3,837.8 h 116.7 l -247.3,-837.8 h -116.7"
                style="fill:#ffffff;fill-opacity:1;fill-rule:nonzero;stroke:none"
                id="path146"/>
        <path
                d="m 18561.1,12876.2 -554.7,-254.2 v 122.5 l 428.8,183.7 v 2.4 l -428.8,183.7 v 122.5 l 554.7,-254.2 v -106.4"
                style="fill:#ffffff;fill-opacity:1;fill-rule:nonzero;stroke:none"
                id="path148"/>
        <path
                d="m 5369.77,14691.3 c 104.05,3 114.61,57.3 114.61,102.6 0,37.7 -4.53,76.9 -9.06,117.6 -4.51,40.7 -7.53,81.4 -7.53,119.1 0,141.8 88.97,203.6 229.22,203.6 h 52.78 V 15106 h -27.14 c -67.86,0 -91.99,-40.7 -91.99,-107.1 0,-27.1 4.53,-54.2 7.54,-85.9 3.01,-30.2 7.54,-64.8 7.54,-102.6 1.51,-114.6 -45.25,-156.8 -128.18,-174.9 v -3 c 82.93,-18.1 129.69,-61.8 128.18,-176.4 0,-39.2 -4.53,-73.9 -7.54,-105.6 -3.01,-30.2 -7.54,-58.8 -7.54,-84.5 0,-66.3 22.62,-108.5 91.99,-108.5 h 27.14 v -126.7 h -54.28 c -134.22,0 -227.72,54.3 -227.72,205.1 0,37.7 3.02,78.4 7.53,119.1 4.53,40.7 9.06,79.9 9.06,117.6 0,42.3 -10.56,99.6 -114.61,102.6 v 116.1"
                style="fill:#ffffff;fill-opacity:1;fill-rule:nonzero;stroke:none"
                id="path150"/>
        <path
                d="m 6530.94,14575.2 c -102.54,-3 -114.61,-60.3 -114.61,-102.6 0,-37.7 4.53,-76.9 9.06,-117.6 4.52,-40.7 9.03,-81.4 9.03,-119.1 0,-150.8 -93.49,-205.1 -229.21,-205.1 h -54.29 v 126.7 h 27.14 c 69.37,1.5 91.99,42.2 91.99,108.5 0,25.7 -3.01,54.3 -7.54,84.5 -3.01,31.7 -7.54,66.4 -7.54,105.6 -1.5,114.6 45.24,158.3 129.69,176.4 v 3 c -84.45,18.1 -131.19,60.3 -129.69,174.9 0,37.8 4.53,72.4 7.54,102.6 4.53,31.7 7.54,58.8 7.54,85.9 0,66.4 -24.13,105.6 -91.99,107.1 h -27.14 v 128.2 h 52.78 c 141.76,0 230.72,-61.8 230.72,-203.6 0,-37.7 -4.51,-78.4 -9.03,-119.1 -4.53,-40.7 -9.06,-79.9 -9.06,-117.6 0,-45.3 12.07,-99.6 114.61,-102.6 v -116.1"
                style="fill:#ffffff;fill-opacity:1;fill-rule:nonzero;stroke:none"
                id="path152"/>
        <path
                d="M 11103.8,12791.6 H 7319.22 c -36.4,0 -68.41,24.1 -78.54,59.1 -15.15,52.2 24.09,104.5 78.54,104.5 h 3784.58 c 36.4,0 68.4,-24.1 78.5,-59 15.2,-52.3 -24.1,-104.6 -78.5,-104.6"
                style="fill:#f1a34f;fill-opacity:1;fill-rule:nonzero;stroke:none"
                id="path154"/>
        <path
                d="M 15598.6,12418.5 H 7408.02 c -36.39,0 -68.42,24 -78.54,59 -15.15,52.3 24.09,104.5 78.54,104.5 h 8190.58 c 36.4,0 68.5,-24 78.6,-59 v 0 c 15.1,-52.3 -24.1,-104.5 -78.6,-104.5"
                style="fill:#a8d29f;fill-opacity:1;fill-rule:nonzero;stroke:none"
                id="path156"/>
        <path
                d="M 12834.2,12045.3 H 7500.89 c -36.39,0 -68.41,24.1 -78.54,59.1 -15.15,52.3 24.1,104.5 78.54,104.5 h 5333.31 c 36.4,0 68.4,-24.1 78.5,-59 15.2,-52.3 -24.1,-104.6 -78.5,-104.6"
                style="fill:#699dee;fill-opacity:1;fill-rule:nonzero;stroke:none"
                id="path158"/>
        <path
                d="M 11926.8,10067.9 H 8142.26 c -36.4,0 -68.42,24.1 -78.54,59.1 -15.16,52.3 24.09,104.5 78.54,104.5 h 3784.54 c 36.4,0 68.4,-24.1 78.6,-59 15.1,-52.3 -24.1,-104.6 -78.6,-104.6"
                style="fill:#f1a34f;fill-opacity:1;fill-rule:nonzero;stroke:none"
                id="path160"/>
        <path
                d="M 13657.2,9321.6 H 8323.94 c -36.41,0 -68.43,24.1 -78.55,59.1 -15.15,52.3 24.09,104.5 78.55,104.5 h 5333.26 c 36.4,0 68.4,-24.1 78.5,-59 15.2,-52.3 -24,-104.6 -78.5,-104.6"
                style="fill:#c65447;fill-opacity:1;fill-rule:nonzero;stroke:none"
                id="path162"/>
        <path
                d="M 10790.9,11498.9 H 7650.89 c -36.39,0 -68.41,24 -78.54,59 -15.15,52.3 24.1,104.5 78.54,104.5 h 3140.01 c 36.4,0 68.4,-24 78.6,-59 15.1,-52.3 -24.1,-104.5 -78.6,-104.5"
                style="fill:#a8d29f;fill-opacity:1;fill-rule:nonzero;stroke:none"
                id="path164"/>
    </g>
</svg>