<?xml version="1.0" encoding="utf-8"?>
<svg version="1.1" xmlns="http://www.w3.org/2000/svg" xmlns:xlink="http://www.w3.org/1999/xlink" x="0px" y="0px"
     viewBox="0 0 600 600" style="enable-background:new 0 0 600 600;" xml:space="preserve">
<style type="text/css">
	.st0{fill:none;stroke:#2b2828;stroke-width:18;stroke-miterlimit:10;}
	.st1{fill:#2b2828;}
</style>
    <path class="st0" d="M285,130.4c-30.5,4-57.8,12.8-83,31c-16.9,12.2-31.4,27.9-42.4,45.6c-16.3,26.1-25.8,57.1-25.6,88
	c0.5,74.1,52.5,142.5,125,160.1c19.5,4.7,40.2,6,60,3.6c24.6-3,48-11.5,69-24.5c16.7-10.4,31.9-24.2,43.4-40.2
	c12.9-17.9,22.8-37.5,28.1-59c16.7-66.7-10.8-138.3-67.6-177c-15.3-10.4-32.1-17.8-50-22.5C323.8,130.8,303.9,127.9,285,130.4z"/>
    <path class="st1" d="M251,286.4c-16.1,2-31.1,5.4-45,14.3c-3,2-6.9,4.2-8.7,7.5c-2.3,4.3,0.8,10,5.7,10.2c4.8,0.2,9-3.9,13-6.1
	c7.9-4.4,16.1-8.1,25-9.9c5.4-1.1,14.4,0.1,18.8-3.2C268.6,292.6,258.2,285.5,251,286.4 M344.1,287.7c-5,2.1-5.4,10.1-0.8,12.9
	c4,2.5,10.2,1,14.8,2c10.7,2.2,20.8,5.6,30,11.4c4,2.5,8.9,7.2,13.9,4.6c10.4-5.3-1.6-15.1-6.9-18.2c-11.3-6.7-24-10.8-37-12.6
	C353.7,287.3,348.3,286,344.1,287.7 M292,354.5c-11.7,2.1-22.9,8.4-29.5,18.5c-3,4.6-6.6,16,2.5,16.7c6.4,0.5,9.4-7.8,13.1-11.6
	c6.3-6.7,15.6-11.3,24.9-9.5c7.3,1.4,13.9,4.9,18.8,10.5c3.3,3.8,5.9,11.7,12.2,10.6c12.2-2,2-18-2.3-22.4
	C321.9,356.9,305.9,352,292,354.5z"/>
</svg>
